<svg xmlns="http://www.w3.org/2000/svg" width="1200" height="1600" viewBox="0 0 1200 1600">
<rect x="0.0" y="0.0" width="1200.0" height="1600.0" rx="0.0" fill="#141414"/>
<rect x="132.0" y="192.0" width="936.0" height="9.6" rx="0.0" fill="#ffd21f"/>
<text x="132.0" y="416.0" font-family="Helvetica Neue,Helvetica,Arial,sans-serif" font-size="192.0" font-weight="800" fill="#fafafa" text-anchor="start" letter-spacing="-2.0">R</text>
<rect x="132.0" y="672.0" width="306.6" height="25.6" rx="12.8" fill="#8a8a8a" opacity="0.5"/><rect x="132.0" y="739.2" width="350.4" height="25.6" rx="12.8" fill="#8a8a8a" opacity="0.5"/><rect x="132.0" y="806.4" width="394.2" height="25.6" rx="12.8" fill="#8a8a8a" opacity="0.5"/><rect x="132.0" y="873.6" width="306.6" height="25.6" rx="12.8" fill="#8a8a8a" opacity="0.5"/><rect x="132.0" y="940.8" width="350.4" height="25.6" rx="12.8" fill="#8a8a8a" opacity="0.5"/><rect x="132.0" y="1008.0" width="394.2" height="25.6" rx="12.8" fill="#8a8a8a" opacity="0.5"/><rect x="132.0" y="1075.2" width="240.9" height="25.6" rx="12.8" fill="#8a8a8a" opacity="0.5"/>
<rect x="630.0" y="672.0" width="306.6" height="25.6" rx="12.8" fill="#8a8a8a" opacity="0.5"/><rect x="630.0" y="739.2" width="350.4" height="25.6" rx="12.8" fill="#8a8a8a" opacity="0.5"/><rect x="630.0" y="806.4" width="394.2" height="25.6" rx="12.8" fill="#8a8a8a" opacity="0.5"/><rect x="630.0" y="873.6" width="306.6" height="25.6" rx="12.8" fill="#8a8a8a" opacity="0.5"/><rect x="630.0" y="940.8" width="350.4" height="25.6" rx="12.8" fill="#8a8a8a" opacity="0.5"/><rect x="630.0" y="1008.0" width="394.2" height="25.6" rx="12.8" fill="#8a8a8a" opacity="0.5"/><rect x="630.0" y="1075.2" width="240.9" height="25.6" rx="12.8" fill="#8a8a8a" opacity="0.5"/>
<rect x="630.0" y="1152.0" width="438.0" height="256.0" rx="0.0" fill="#ffd21f" opacity="0.9"/>
</svg>