<svg xmlns="http://www.w3.org/2000/svg" width="1080" height="1350" viewBox="0 0 1080 1350">
<rect x="0.0" y="0.0" width="1080.0" height="1350.0" rx="0.0" fill="#f3f0e9"/>
<rect x="290.3" y="143.6" width="531.4" height="1107.0" rx="58.4" fill="#000000" opacity="0.12"/>
<rect x="274.3" y="121.5" width="531.4" height="1107.0" rx="58.4" fill="#ffffff"/>
<rect x="460.3" y="141.4" width="159.4" height="13.3" rx="11.1" fill="#ddd7c9" opacity="0.8"/>
<rect x="316.8" y="199.0" width="200.9" height="35.4" rx="13.3" fill="#1b1a17" opacity="0.9"/>
<circle cx="731.3" cy="216.7" r="26.6" fill="#ddd7c9" opacity="0.8"/>
<rect x="316.8" y="276.5" width="207.2" height="199.3" rx="26.6" fill="#ddd7c9" opacity="0.45"/>
<circle cx="370.4" cy="342.9" r="31.9" fill="#8c877c" opacity="0.85"/>
<rect x="348.7" y="403.8" width="107.1" height="22.1" rx="11.1" fill="#1b1a17" opacity="0.5"/>
<rect x="316.8" y="509.0" width="207.2" height="199.3" rx="26.6" fill="#ddd7c9" opacity="0.45"/>
<circle cx="370.4" cy="575.4" r="31.9" fill="#c2452c" opacity="0.85"/>
<rect x="348.7" y="636.3" width="107.1" height="22.1" rx="11.1" fill="#1b1a17" opacity="0.5"/>
<rect x="540.0" y="276.5" width="207.2" height="199.3" rx="26.6" fill="#ddd7c9" opacity="0.45"/>
<circle cx="593.6" cy="342.9" r="31.9" fill="#c2452c" opacity="0.85"/>
<rect x="571.9" y="403.8" width="107.1" height="22.1" rx="11.1" fill="#1b1a17" opacity="0.5"/>
<rect x="540.0" y="509.0" width="207.2" height="199.3" rx="26.6" fill="#ddd7c9" opacity="0.45"/>
<circle cx="593.6" cy="575.4" r="31.9" fill="#8c877c" opacity="0.85"/>
<rect x="571.9" y="636.3" width="107.1" height="22.1" rx="11.1" fill="#1b1a17" opacity="0.5"/>
<rect x="316.8" y="763.6" width="446.3" height="155.0" rx="26.6" fill="#ddd7c9" opacity="0.35"/>
<rect x="348.1" y="798.5" width="45.9" height="86.8" rx="5.3" fill="#c2452c" opacity="0.35"/>
<rect x="402.9" y="793.1" width="45.9" height="92.2" rx="5.3" fill="#c2452c" opacity="0.44285714285714284"/>
<rect x="457.7" y="809.6" width="45.9" height="75.8" rx="5.3" fill="#c2452c" opacity="0.5357142857142857"/>
<rect x="512.6" y="790.3" width="45.9" height="95.0" rx="5.3" fill="#c2452c" opacity="0.6285714285714286"/>
<rect x="567.4" y="820.2" width="45.9" height="65.1" rx="5.3" fill="#c2452c" opacity="0.7214285714285714"/>
<rect x="622.3" y="789.6" width="45.9" height="95.7" rx="5.3" fill="#c2452c" opacity="0.8142857142857143"/>
<rect x="677.1" y="833.4" width="45.9" height="51.9" rx="5.3" fill="#c2452c" opacity="0.9071428571428571"/>
<rect x="274.3" y="1117.8" width="531.4" height="110.7" rx="0.0" fill="#ddd7c9" opacity="0.3"/>
<circle cx="380.6" cy="1167.6" r="18.6" fill="#c2452c"/>
<circle cx="486.9" cy="1167.6" r="18.6" fill="#8c877c" opacity="0.45"/>
<circle cx="593.1" cy="1167.6" r="18.6" fill="#8c877c" opacity="0.45"/>
<circle cx="699.4" cy="1167.6" r="18.6" fill="#8c877c" opacity="0.45"/>
</svg>